<svg width="512" height="630" xmlns="http://www.w3.org/2000/svg">
 <title/>

 <g>
  <title>Layer 1</title>
  <path d="m502.53,318.9a51.1187,51.1187 0 0 0 -37.47,-45.26c-0.03,-0.01 -0.07,-0.02 -0.1,-0.03a36.2281,36.2281 0 0 1 -23.81,-19.69c-21.14,-45.19 -68.69,-105.49 -172.88,-112.43a159.1442,159.1442 0 0 0 -21.06,0.01c-103.88,6.92 -151.45,66.9 -172.67,112.04a35.8086,35.8086 0 0 1 -27.28,20.07a28.2576,28.2576 0 0 0 -4.47,0.92a50.9388,50.9388 0 0 0 16.24,99.22c1.1,0 2.18,-0.04 3.25,-0.11a6.5229,6.5229 0 0 0 1.83,3.77c27.4,27.55 35.09,69.71 36.11,76.08c0.66,13.78 17.01,24.99 48.63,33.31c28.57,7.52 66.4,11.66 106.51,11.66c39.92,0 77.62,-4.11 106.14,-11.56c31.36,-8.2 47.82,-19.22 48.96,-32.78a0.0749,0.0749 0 0 1 0.01,-0.05c0.07,-0.47 7.05,-47.34 36.21,-76.66a6.5208,6.5208 0 0 0 1.83,-3.77c1.07,0.07 2.14,0.11 3.23,0.11a50.9351,50.9351 0 0 0 50.79,-54.85zm-187.29,-122.84a5.5,5.5 0 0 1 -0.42,7.76l-23.42,21.03a5.5022,5.5022 0 0 1 -7.35,-8.19l23.42,-21.02a5.5034,5.5034 0 0 1 7.77,0.42zm-32.47,-22.49a5.4985,5.4985 0 1 1 7.35,8.18l-72.95,65.48a5.439,5.439 0 0 1 -3.67,1.41a5.5,5.5 0 0 1 -3.68,-9.59l72.95,-65.48zm-9.21,66.95l-13.6,12.41a5.5,5.5 0 1 1 -7.42,-8.12l13.6,-12.42a5.5035,5.5035 0 0 1 7.42,8.13zm-67.44,-40.01l24.18,-21.7a5.4985,5.4985 0 1 1 7.35,8.18l-24.19,21.71a5.4989,5.4989 0 0 1 -7.34,-8.19zm191.56,251.15a6.5926,6.5926 0 0 0 -0.16,1.18c-0.32,6.79 -16.12,15.42 -39.31,21.48c-27.48,7.18 -64,11.14 -102.85,11.14c-39.02,0 -75.68,-3.99 -103.2,-11.23c-26.75,-7.04 -38.84,-15.87 -38.95,-21.5a8.07,8.07 0 0 0 -0.08,-0.86c-0.75,-4.86 -7.63,-45.14 -32.7,-75.75a57.6966,57.6966 0 0 0 12.92,-7.24a8.2346,8.2346 0 0 1 9.91,0a57.467,57.467 0 0 0 68.63,0a8.2346,8.2346 0 0 1 9.91,0a57.4667,57.4667 0 0 0 68.63,0a8.2351,8.2351 0 0 1 9.91,0a57.4667,57.4667 0 0 0 68.63,0a8.2346,8.2346 0 0 1 9.91,0a57.467,57.467 0 0 0 68.63,0a8.2346,8.2346 0 0 1 9.91,0a57.7646,57.7646 0 0 0 12.93,7.24c-24.94,30.41 -31.81,70.02 -32.67,75.54z" id="svg_1"/>
  <path d="m250.3,115.4883a6,6 0 0 1 -6,-6c0,-10.2754 6.458,-15.624 11.1729,-19.5293c4.4863,-3.7158 6.8271,-5.86 6.8271,-10.2871s-2.3408,-6.5713 -6.8271,-10.2871c-4.7151,-3.9048 -11.1729,-9.2539 -11.1729,-19.5293s6.458,-15.6221 11.1729,-19.5274c4.4861,-3.7148 6.8271,-5.8593 6.8271,-10.2851a6,6 0 0 1 12,0c0,10.2744 -6.458,15.622 -11.1728,19.5273c-4.4866,3.7149 -6.8272,5.8597 -6.8272,10.2852s2.3408,6.5713 6.8272,10.2871c4.7146,3.9053 11.1728,9.2539 11.1728,19.5293s-6.458,15.624 -11.1728,19.5293c-4.4864,3.7158 -6.8272,5.86 -6.8272,10.2871a6,6 0 0 1 -6,6z" id="svg_2"/>
  <path d="m290.0273,115.4883a6,6 0 0 1 -6,-6c0,-10.2754 6.4581,-15.624 11.1729,-19.5293c4.4863,-3.7158 6.8271,-5.86 6.8271,-10.2871s-2.3408,-6.5713 -6.8271,-10.2871c-4.7148,-3.9053 -11.1729,-9.2539 -11.1729,-19.5293s6.4581,-15.6221 11.1727,-19.5274c4.4863,-3.7148 6.8271,-5.8593 6.8271,-10.2851a6,6 0 0 1 12,0c0,10.2744 -6.458,15.622 -11.1728,19.5273c-4.4863,3.7149 -6.8272,5.8594 -6.8272,10.2852s2.3409,6.5713 6.8272,10.2871c4.7148,3.9053 11.1728,9.2539 11.1728,19.5293s-6.458,15.624 -11.1728,19.5293c-4.4863,3.7158 -6.8272,5.86 -6.8272,10.2871a6,6 0 0 1 -5.9998,6z" id="svg_3"/>
  <path d="m210.5732,115.4883a6,6 0 0 1 -6,-6c0,-10.2754 6.458,-15.624 11.1729,-19.5293c4.4863,-3.7158 6.8271,-5.86 6.8271,-10.2871s-2.3408,-6.5713 -6.8271,-10.2871c-4.7149,-3.9053 -11.1729,-9.2539 -11.1729,-19.5293s6.458,-15.6221 11.1729,-19.5274c4.4863,-3.7148 6.8271,-5.8593 6.8271,-10.2851a6,6 0 0 1 12,0c0,10.2744 -6.458,15.622 -11.1728,19.5273c-4.4863,3.7149 -6.8272,5.8594 -6.8272,10.2852s2.3409,6.5713 6.8272,10.2871c4.7148,3.9053 11.1728,9.2539 11.1728,19.5293s-6.458,15.624 -11.1728,19.5293c-4.4863,3.7158 -6.8272,5.86 -6.8272,10.2871a6,6 0 0 1 -6,6z" id="svg_4"/>
  <text transform="matrix(1 0 0 1 0 0)" fill="#000000" stroke="#000" stroke-width="0" x="11.60938" y="599" id="svg_5" font-size="100" font-family="'Noto Sans TC'" text-anchor="start" xml:space="preserve" font-weight="bold">SweetSmile</text>
 </g>
</svg>